# xmcd CD database file
#
# Track frame offsets:
#	150
#	18764
#	37856
#	57598
#	69768
#	88778
#	107297
#	121298
#	142404
#	150651
#	167085
#	186382
#
# Disc length: 2533 seconds
#
# Revision: 0
# Processed by: cddbd v1.4PL0 Copyright (c) Steve Scherf et al.
# Submitted via: CDex 1.40Release
#
DISCID=9a09e30c
DTITLE=Chloe Doody Persuasion - Frayed At The Edges
DYEAR=1999
DGENRE=Blues
TTITLE0=Did You Pay Him
TTITLE1=Burning The Midnight Oil
TTITLE2=Frozen In Blue
TTITLE3=Fat Cat
TTITLE4=With My Man
TTITLE5=You Mend
TTITLE6=One Kind Word
TTITLE7=Champagne Definitely
TTITLE8=Mr. Esher Walks In
TTITLE9=Fine Chance
TTITLE10=Close The Door
TTITLE11=Mr. Esher Walks Out
EXTD=YEAR: 1999 ID3G: 0
EXTT0=
EXTT1=
EXTT2=
EXTT3=
EXTT4=
EXTT5=
EXTT6=
EXTT7=
EXTT8=
EXTT9=
EXTT10=
EXTT11=
PLAYORDER=
